<svg version="1.1" id="Livello_1" xmlns="http://www.w3.org/2000/svg" xmlns:xlink="http://www.w3.org/1999/xlink"
     viewBox="0 0 1920 310" preserveAspectRatio="none">
<style type="text/css">
    .st0{fill:#001439;}
</style>
<path class="st0" d="M1920,0.2L0,0.2l0,83.9c36.7,23.2,76,61.6,177,64.9c87.6,2.9,186.8-58.4,256.5-89.4
    c52-23.1,85.4-41.8,157.4-35.5c92.9,8.2,152.8,70.1,180.7,89.3c23.2,16,134.3,103.9,171.8,128c50.6,32.4,98.4,59.1,166.5,67.4
    c67.6,8.2,124.6-6.2,153-18c42.2-17.4,42.2-17.4,90-38.9c35.4-15.9,81.6-34,141.6-34c116.6,0,262.8,77.9,354.9,79.9
    c17.5,0.4,47.9-1.8,70.6-14.8V0.2z"/>
</svg>